<svg xmlns="http://www.w3.org/2000/svg" width="24" height="25" viewBox="0 0 24 25" fill="none"><div xmlns="" id="in-page-channel-node-id" data-channel-name="in_page_channel_9DZkfG"/>
<g id="Icons/Common/24/attachment">
<path id="Vector" d="M13.8235 13.8233V8.97039C13.8235 7.02115 12.2433 5.44098 10.2941 5.44098C8.34488 5.44098 6.76471 7.02115 6.76471 8.97039L6.76471 13.8233C6.76471 16.9909 9.33249 19.5586 12.5 19.5586C15.6676 19.5586 18.2353 16.9909 18.2353 13.8233V5.44098H20V13.8233C20 17.9654 16.6421 21.3233 12.5 21.3233C8.35786 21.3233 5 17.9654 5 13.8233L5 8.97039C5 6.04653 7.37026 3.67627 10.2941 3.67627C13.218 3.67627 15.5882 6.04653 15.5882 8.97039V13.8233C15.5882 15.5289 14.2056 16.9116 12.5 16.9116C10.7944 16.9116 9.41176 15.5289 9.41176 13.8233V8.97039H11.1765V13.8233C11.1765 14.5543 11.7691 15.1469 12.5 15.1469C13.2309 15.1469 13.8235 14.5543 13.8235 13.8233Z" fill="#4caf50"/>
</g>
</svg>