<svg width="37" height="38" viewBox="0 0 37 38" fill="none" xmlns="http://www.w3.org/2000/svg">
<rect width="37" height="38" rx="18.5" fill="#75BB0D"/>
<path d="M11.6176 25.153C10.8696 25.153 10.1953 25.0057 9.59459 24.711C9.00526 24.4163 8.54059 23.9573 8.20059 23.334C7.87192 22.6993 7.70759 21.9003 7.70759 20.937V15.786H10.9376V20.41C10.9376 21.124 11.0679 21.634 11.3286 21.94C11.6006 22.246 11.9803 22.399 12.4676 22.399C12.7849 22.399 13.0739 22.3253 13.3346 22.178C13.5953 22.0307 13.8049 21.7983 13.9636 21.481C14.1223 21.1523 14.2016 20.733 14.2016 20.223V15.786H17.4316V25H14.3546V22.399L14.9496 23.13C14.6323 23.81 14.1733 24.32 13.5726 24.66C12.9719 24.9887 12.3203 25.153 11.6176 25.153ZM25.3091 25.153C24.4818 25.153 23.7904 24.983 23.2351 24.643C22.6911 24.303 22.2831 23.7817 22.0111 23.079C21.7391 22.3763 21.6031 21.4753 21.6031 20.376C21.6031 19.2993 21.7448 18.4097 22.0281 17.707C22.3228 17.0043 22.7478 16.483 23.3031 16.143C23.8584 15.803 24.5271 15.633 25.3091 15.633C26.1478 15.633 26.9071 15.8257 27.5871 16.211C28.2784 16.5963 28.8224 17.146 29.2191 17.86C29.6271 18.5627 29.8311 19.4013 29.8311 20.376C29.8311 21.362 29.6271 22.212 29.2191 22.926C28.8224 23.6287 28.2784 24.1783 27.5871 24.575C26.9071 24.9603 26.1478 25.153 25.3091 25.153ZM19.5121 25V12.386H22.7421V17.333L22.5721 20.376L22.5891 23.419V25H19.5121ZM24.6291 22.586C24.9918 22.586 25.3148 22.501 25.5981 22.331C25.8928 22.161 26.1251 21.9117 26.2951 21.583C26.4764 21.243 26.5671 20.8407 26.5671 20.376C26.5671 19.9113 26.4764 19.5203 26.2951 19.203C26.1251 18.8743 25.8928 18.625 25.5981 18.455C25.3148 18.285 24.9918 18.2 24.6291 18.2C24.2664 18.2 23.9378 18.285 23.6431 18.455C23.3598 18.625 23.1274 18.8743 22.9461 19.203C22.7761 19.5203 22.6911 19.9113 22.6911 20.376C22.6911 20.8407 22.7761 21.243 22.9461 21.583C23.1274 21.9117 23.3598 22.161 23.6431 22.331C23.9378 22.501 24.2664 22.586 24.6291 22.586Z" fill="white"/>
</svg>
