<svg width="61" height="62" viewBox="0 0 61 62" fill="none" xmlns="http://www.w3.org/2000/svg">
<rect width="61" height="62" rx="30.5" fill="url(#paint0_linear_167_578)"/>
<path d="M17.5449 42.288C16.1369 42.288 14.8675 42.0107 13.7369 41.456C12.6275 40.9013 11.7529 40.0373 11.1129 38.864C10.4942 37.6693 10.1849 36.1653 10.1849 34.352V24.656H16.2649V33.36C16.2649 34.704 16.5102 35.664 17.0009 36.24C17.5129 36.816 18.2275 37.104 19.1449 37.104C19.7422 37.104 20.2862 36.9653 20.7769 36.688C21.2675 36.4107 21.6622 35.9733 21.9609 35.376C22.2595 34.7573 22.4089 33.968 22.4089 33.008V24.656H28.4889V42H22.6969V37.104L23.8169 38.48C23.2195 39.76 22.3555 40.72 21.2249 41.36C20.0942 41.9787 18.8675 42.288 17.5449 42.288ZM43.3171 42.288C41.7598 42.288 40.4585 41.968 39.4131 41.328C38.3891 40.688 37.6211 39.7067 37.1091 38.384C36.5971 37.0613 36.3411 35.3653 36.3411 33.296C36.3411 31.2693 36.6078 29.5947 37.1411 28.272C37.6958 26.9493 38.4958 25.968 39.5411 25.328C40.5865 24.688 41.8451 24.368 43.3171 24.368C44.8958 24.368 46.3251 24.7307 47.6051 25.456C48.9065 26.1813 49.9305 27.216 50.6771 28.56C51.4451 29.8827 51.8291 31.4613 51.8291 33.296C51.8291 35.152 51.4451 36.752 50.6771 38.096C49.9305 39.4187 48.9065 40.4533 47.6051 41.2C46.3251 41.9253 44.8958 42.288 43.3171 42.288ZM32.4051 42V18.256H38.4851V27.568L38.1651 33.296L38.1971 39.024V42H32.4051ZM42.0371 37.456C42.7198 37.456 43.3278 37.296 43.8611 36.976C44.4158 36.656 44.8531 36.1867 45.1731 35.568C45.5145 34.928 45.6851 34.1707 45.6851 33.296C45.6851 32.4213 45.5145 31.6853 45.1731 31.088C44.8531 30.4693 44.4158 30 43.8611 29.68C43.3278 29.36 42.7198 29.2 42.0371 29.2C41.3545 29.2 40.7358 29.36 40.1811 29.68C39.6478 30 39.2105 30.4693 38.8691 31.088C38.5491 31.6853 38.3891 32.4213 38.3891 33.296C38.3891 34.1707 38.5491 34.928 38.8691 35.568C39.2105 36.1867 39.6478 36.656 40.1811 36.976C40.7358 37.296 41.3545 37.456 42.0371 37.456Z" fill="white"/>
<defs>
<linearGradient id="paint0_linear_167_578" x1="0.486056" y1="62" x2="48.6883" y2="60.8866" gradientUnits="userSpaceOnUse">
<stop offset="1" stop-color="#0AB557"/>
</linearGradient>
</defs>
</svg>
